<svg version="1.1" xmlns="http://www.w3.org/2000/svg" xmlns:xlink="http://www.w3.org/1999/xlink" width="100.000000pt" height="100.000000pt" viewBox="0,0,256,256"><g fill="#ffffff" fill-rule="nonzero" stroke="none" stroke-width="1" stroke-linecap="butt" stroke-linejoin="miter" stroke-miterlimit="10" stroke-dasharray="" stroke-dashoffset="0" font-family="none" font-weight="none" font-size="none" text-anchor="none" style="mix-blend-mode: normal"><g transform="translate(0.1136,-0.22013) scale(2.56,2.56)"><g transform="translate(0,100) scale(0.1,-0.1)"><path d="M543,986c-18,-8 -38,-24 -44,-35c-12,-18 -15,-18 -40,-5c-100,51 -217,-34 -205,-148l5,-48h-70c-38,0 -84,-6 -103,-14c-87,-36 -112,-151 -49,-227c22,-26 24,-34 14,-55c-45,-100 40,-212 151,-200l48,5v-70c0,-38 6,-84 14,-103c36,-87 151,-112 227,-49c26,22 34,24 55,14c100,-45 212,40 200,152l-5,47h70c80,0 127,16 157,55c44,55 37,154 -12,193c-22,16 -23,20 -10,43c21,38 17,101 -9,140c-32,49 -81,71 -139,65l-48,-5v72c0,81 -18,128 -61,160c-35,25 -105,31 -146,13zM652,903c16,-14 18,-34 18,-190v-173h-65h-65v168c0,135 3,172 16,190c18,27 69,30 96,5zM442,863c13,-11 18,-30 18,-65v-48h-45c-53,0 -85,25 -85,67c0,55 70,85 112,46zM460,605v-65h-168c-190,0 -212,7 -212,62c0,64 13,68 207,68h173zM862,653c22,-20 23,-70 1,-95c-11,-13 -30,-18 -65,-18h-48v45c0,73 64,112 112,68zM250,415c0,-32 -6,-51 -20,-65c-41,-41 -110,-14 -110,43c0,47 25,67 82,67h48zM460,292c0,-190 -7,-212 -62,-212c-64,0 -68,13 -68,207v173h65h65zM898,444c27,-18 30,-69 5,-96c-14,-16 -34,-18 -190,-18h-173v65v65h168c135,0 172,-3 190,-16zM650,230c41,-41 14,-110 -43,-110c-47,0 -67,25 -67,82v48h45c32,0 51,-6 65,-20z"></path></g></g></g></svg>